<svg xmlns="http://www.w3.org/2000/svg" xmlns:xlink="http://www.w3.org/1999/xlink" version="1.1" x="0px" y="0px" viewBox="0 0 100 125" enable-background="new 0 0 100 100" xml:space="preserve"><path d="M33.034,73.84c0-3.819-3.055-6.874-6.874-6.874s-6.874,3.055-6.928,6.874c0.055,3.819,3.11,6.928,6.928,6.928     S33.034,77.659,33.034,73.84z M80.768,66.53c0-3.819-3.055-6.928-6.874-6.928c-3.819,0-6.928,3.11-6.928,6.928     s3.11,6.874,6.928,6.874C77.713,73.404,80.768,70.349,80.768,66.53z M88.951,66.53c0,0.273,0,0.546-0.055,0.818     c-0.382,7.965-6.983,14.239-15.002,14.239c-8.347,0-15.111-6.71-15.111-15.057s6.765-15.111,15.111-15.111     c2.509,0,4.855,0.6,6.874,1.691V19.886l-39.551,6.055V73.84c0,8.347-6.71,15.111-15.057,15.111S11.103,82.187,11.049,73.84     c0.055-8.347,6.765-15.057,15.111-15.057c2.455,0,4.801,0.6,6.874,1.637V22.505V22.45v-0.055c0-0.273,0.055-0.491,0.109-0.764     c0.055-0.273,0.164-0.6,0.273-0.873c0.109-0.218,0.218-0.382,0.327-0.6c0.164-0.218,0.327-0.382,0.491-0.6     c0.164-0.164,0.382-0.327,0.546-0.436c0.491-0.382,1.091-0.6,1.746-0.709l47.516-7.256l0.218-0.055     c0.218-0.055,0.382-0.055,0.6-0.055c0.273,0,0.546,0,0.818,0.109c0.273,0.055,0.6,0.109,0.873,0.273     c0.218,0.055,0.436,0.218,0.6,0.327c0.218,0.164,0.436,0.327,0.6,0.491c0.218,0.164,0.382,0.382,0.491,0.6     c0.164,0.218,0.273,0.436,0.382,0.709c0.055,0.109,0.109,0.218,0.109,0.382c0.055,0.055,0.055,0.164,0.109,0.273     c0,0.109,0.055,0.218,0.055,0.327c0.055,0.218,0.055,0.436,0.055,0.709V66.53z"/></svg>