<svg xmlns="http://www.w3.org/2000/svg" xmlns:xlink="http://www.w3.org/1999/xlink" version="1.1" x="0px" y="0px" viewBox="0 0 100 125" enable-background="new 0 0 100 100" xml:space="preserve"><path d="M67.791,73.183c0.327,0,0.6,0,0.927-0.109l-7.747-7.746c-0.109,0.327-0.109,0.655-0.109,0.982     C60.863,70.128,63.973,73.183,67.791,73.183z M67.791,51.2c2.509,0,4.855,0.6,6.819,1.691v-33.22l-39.497,6.055v2.182     l25.258,25.256C62.554,51.909,65.064,51.2,67.791,51.2z M74.556,67.346c0.055-0.327,0.055-0.709,0.055-1.036     c0-3.818-3-6.928-6.819-6.928c-0.382,0-0.709,0.055-1.091,0.109L74.556,67.346z M26.985,73.619c0-3.818-3.055-6.873-6.874-6.873     s-6.874,3.055-6.928,6.873c0.055,3.818,3.11,6.928,6.928,6.928S26.985,77.438,26.985,73.619z M27.694,19.944     c0.164-0.218,0.327-0.382,0.491-0.6c0.164-0.164,0.327-0.327,0.491-0.436c0.491-0.382,1.091-0.6,1.746-0.709l47.462-7.255     l0.218-0.055c0.218-0.055,0.382-0.055,0.6-0.055c0.273,0,0.546,0,0.818,0.109c0.273,0.055,0.6,0.109,0.873,0.273     c0.218,0.055,0.436,0.218,0.6,0.327c0.218,0.164,0.436,0.327,0.6,0.491c0.218,0.164,0.382,0.382,0.491,0.6     c0.164,0.218,0.273,0.436,0.382,0.709c0.055,0.109,0.109,0.218,0.109,0.382c0.055,0.055,0.055,0.164,0.109,0.273     c0,0.109,0.055,0.218,0.055,0.327c0.055,0.218,0.055,0.436,0.055,0.709V66.31c0,0.273,0,0.545-0.055,0.818     c-0.109,2.4-0.764,4.582-1.855,6.546l12.929,12.982c1.582,1.582,1.582,4.2,0,5.782c-1.582,1.582-4.201,1.582-5.783,0     L75.047,79.456c-2.128,1.2-4.637,1.909-7.256,1.909c-8.347,0-15.111-6.709-15.111-15.055c0-2.673,0.709-5.182,1.909-7.364     L35.114,39.472v34.147c0,8.346-6.71,15.11-15.002,15.11c-8.347,0-15.057-6.764-15.111-15.11     c0.055-8.346,6.765-15.055,15.111-15.055c2.455,0,4.801,0.6,6.874,1.636V31.29L9.037,13.344c-1.582-1.582-1.582-4.2,0-5.782     s4.201-1.582,5.783,0l12.711,12.71C27.585,20.162,27.64,20.053,27.694,19.944z"/></svg>